<?xml version="1.0" standalone="no"?>
<!DOCTYPE svg PUBLIC "-//W3C//DTD SVG 1.1//EN" "http://www.w3.org/Graphics/SVG/1.1/DTD/svg11.dtd">
<svg xmlns="http://www.w3.org/2000/svg" viewBox="0 0 576.9 95.8" width="576.9000244140625" height="95.80000305175781"><defs><style>.cls-1{fill:#204272;}.cls-2,.cls-3{fill:#204778;}.cls-2,.cls-4{fill-rule:evenodd;}.cls-4{fill:#51ade5;}</style></defs><title>Asset 14trygonlogo</title><g id="Layer_2" data-name="Layer 2"><g id="Layer_1-2" data-name="Layer 1"><g id="main_logo" data-name="main logo"><path class="cls-1" d="M42.7,84.22H31.58V25.45H0V14.39H74.34V25.45H42.7Z"/><path class="cls-1" d="M168.77,84.22H157.66V64.55A5.57,5.57,0,0,0,152.1,59H96.65V84.22H85.54V14.39H152.1a16.09,16.09,0,0,1,11.76,4.87A15.92,15.92,0,0,1,168.77,31V42.34a15.8,15.8,0,0,1-4.3,11.09,16,16,0,0,1,4.3,11.12ZM152.1,47.9A5.35,5.35,0,0,0,156,46.27a5.43,5.43,0,0,0,1.63-3.93V31a5.57,5.57,0,0,0-5.56-5.54H96.65V47.9Z"/><path class="cls-1" d="M231.15,84.22H220.06V51.78L177.55,14.39H194.3l31.24,27.5,31.26-27.5h16.92L231.15,51.78Z"/><path class="cls-1" d="M343.5,84.22A22.21,22.21,0,0,0,365.7,62V54.85a8,8,0,0,0-7.93-7.94h-33.7V58h30.52v4a10.88,10.88,0,0,1-3.26,7.83,11,11,0,0,1-7.83,3.29H304.67A11.06,11.06,0,0,1,293.58,62V36.54a11.1,11.1,0,0,1,11.09-11.09H343.5a11.13,11.13,0,0,1,11.09,11.09H365.7a21.27,21.27,0,0,0-6.52-15.65,21.36,21.36,0,0,0-15.68-6.5H304.67A21.44,21.44,0,0,0,289,20.89a21.32,21.32,0,0,0-6.49,15.65V62a22.18,22.18,0,0,0,22.2,22.21Z"/><path class="cls-1" d="M576.9,84.22h-7.56L504.78,31.57V84.22H493.66V14.39h7.51L565.78,67V14.39H576.9Z"/><path class="cls-2" d="M439.05,82.45c-.27,0-.24,0-.37.2C439,82.59,438.92,82.61,439.05,82.45Z"/><rect class="cls-3" x="407.69" y="72.28" width="8.6" height="8.6"/><rect class="cls-3" x="415.5" y="85.53" width="4.43" height="5.15"/><path class="cls-2" d="M456.5,58.91a19.68,19.68,0,0,0-8.79-2.5l.09-.41-2.4,1.07c-2.42,1.11-5,2-7.49,2.87-.87.31-1.73.57-2.63.84l-1.34.41-4.05,1.11a3.14,3.14,0,0,1-2.7-.1l-1.35-.39c-2.6-.8-5.2-1.72-7.72-2.72l-1.19-.48-2.42-1c-1.55-.71-3.14-1.4-4.63-2.22-.76-.41-1.48-.75-2.21-1.17a62.53,62.53,0,0,1-6.34-4c-.34-.26-.66-.46-1-.72-.84-.63-2.55-1.94-3.3-2.62L394,44a22,22,0,0,1-1.6-1.74,36.74,36.74,0,0,1-5.41-8c-.51-1.09-1-2.19-1.4-3.31a46.63,46.63,0,0,0,5.78,42.28h2.77V65.61H404v7.2h2.24v-2h11.32V82.16h-2.05v2.41h5.58v7.06h-3.16a46.37,46.37,0,0,0,7.76,1.28c.1-.12.18-.22.25-.29a54.32,54.32,0,0,1,5.33-5.73l1.48-1.29a35,35,0,0,1,4-3,48.68,48.68,0,0,1,8.19-4.33c1.32-.54,2.65-1,3.95-1.61.67-.31,1.28-.56,1.95-.87a18,18,0,0,0,7.78-6.07,9.79,9.79,0,0,0,1.55-3.82C460.72,62.64,458.49,60.18,456.5,58.91Z"/><rect class="cls-3" x="400.16" y="76.3" width="3.83" height="3.83"/><rect class="cls-3" x="394.42" y="73.95" width="4.47" height="4.47"/><rect class="cls-3" x="403.15" y="80.88" width="4.47" height="4.47"/><rect class="cls-3" x="397.41" y="85.35" width="5.74" height="5.74"/><rect class="cls-3" x="412.39" y="90.68" width="3.06" height="3.06"/><path class="cls-2" d="M460.4,70.41l0,0A0,0,0,0,0,460.4,70.41Z"/><path class="cls-2" d="M460.35,70.57l0,0S460.35,70.57,460.35,70.57Z"/><path class="cls-2" d="M463,67.5l0,0Z"/><path class="cls-2" d="M444.18,58.68l0,0S444.18,58.68,444.18,58.68Z"/><path class="cls-2" d="M463.08,67.21c0,.29,0,0,.06.14v-.27h0C463.08,67.15,463.09,67.06,463.08,67.21Z"/><path class="cls-2" d="M444.31,58.73l0,0S444.32,58.72,444.31,58.73Z"/><path class="cls-2" d="M451.72,70.52c.43-.62.3-3.33.11-4.12a10.15,10.15,0,0,0-3.8-5.51,14,14,0,0,0-3-1.75h0l1.44.92c.26.18.48.32.72.5l.64.5c1.81,1.65,3,3,3.71,5.45C452.11,68.57,451.72,69.24,451.72,70.52Z"/><path class="cls-2" d="M459.88,71.37c-.16.1-.1,0-.15.2C459.89,71.47,459.83,71.56,459.88,71.37Z"/><path class="cls-2" d="M460.2,70.78l0,0S460.2,70.77,460.2,70.78Z"/><path class="cls-4" d="M395.24,32.36c.89.41,1.81.75,2.79,1.11a27.28,27.28,0,0,0,3.09.84c.37.08,3.11.45,3.31.57-1,.21-2,.44-3,.63a25,25,0,0,0-3.06.53c1.53,0,2.93-.11,4.38-.2s2.69-.27,4-.47,2.68-.38,3.94-.61a32.53,32.53,0,0,0,7.16-1.8c1.1-.36,2.2-.72,3.39-1a26.42,26.42,0,0,1,15.55,0c2.3.62,4.35,1.5,6.55,2.29,1.12.4,2.25.79,3.37,1.13,2.41.74,8.33,2.46,10.89,2.46l0,0-.05,0-.34-.09a57.74,57.74,0,0,1-6.6-2c.79,0,1.32.07,2.15.07a31.88,31.88,0,0,0,4.14-.29c.59-.07,1.29-.2,1.86-.33a30.8,30.8,0,0,0,3.42-.94,37.4,37.4,0,0,0,5.9-2.76,27.07,27.07,0,0,0,4.48-3.14,46.55,46.55,0,0,0-85.2-1c.25.22.5.44.77.64A37.64,37.64,0,0,0,395.24,32.36Z"/><path class="cls-2" d="M439.28,82.45c-.27,0-.24,0-.37.2C439.18,82.59,439.14,82.61,439.28,82.45Z"/><path class="cls-2" d="M440.64,81.79c.25-.13.43-.19.68-.33l2.06-1,.69-.32c.25-.11.42-.15.67-.27,2.62-1.2,4.86-1.81,7.24-2.75a19.7,19.7,0,0,0,3.86-2,18.89,18.89,0,0,0,2.21-1.72,11.55,11.55,0,0,0,1.84-2.06c-.22.13-.31.31-.5.49a18,18,0,0,1-3.8,3.12A19.15,19.15,0,0,1,453,76.33a23.9,23.9,0,0,1-2.87,1.12c-2.19.79-3.48,1.26-5.68,2.27a42.41,42.41,0,0,0-5.19,2.73h0A12,12,0,0,0,440.64,81.79Z"/><path class="cls-2" d="M473.71,31.46c-.16.41-.32.82-.5,1.22a32.69,32.69,0,0,1-4.36,7.51L464.61,45l-1.55,1.43c-.15.13-.26.25-.41.37-.69.56-1.36,1.17-2.09,1.69l-4,2.82a16,16,0,0,0-2.25,1.47,10.42,10.42,0,0,1,2.16.88c.62.34,1.31.65,1.89,1,.33.22.59.38.9.61l.44.34a13.73,13.73,0,0,1,4.19,5.28c1.72,4,.38,8.52-2.56,11.72a21.37,21.37,0,0,1-8,5.27c-.73.29-1.44.56-2.22.83-6.71,2.29-10.52,3.1-16.6,7.3-.6.42-1.13.79-1.71,1.22L427,92.41c-.13.13-.24.21-.37.34a1.71,1.71,0,0,0-.18.2c1.07.07,2.15.11,3.23.11a46.55,46.55,0,0,0,44-61.6Z"/><path class="cls-2" d="M423.85,95.8h0c.4-.25,1.57-1.79,2.05-2.26.19-.19.36-.39.53-.59l-.51,0A17.52,17.52,0,0,0,423.85,95.8Z"/><path class="cls-2" d="M386,26.11l-1.41-1.43a2.37,2.37,0,0,0-.5-.5,8.52,8.52,0,0,0,.22,1.37c.09.5.17.89.27,1.39a30.23,30.23,0,0,0,1.21,4c.45-1.26.94-2.5,1.49-3.71Z"/><path class="cls-2" d="M475,27.09a7.1,7.1,0,0,0,.24-1.27,12.91,12.91,0,0,0-1.09,1c-.53.49-1.08,1-1.64,1.45.44,1,.84,2.08,1.21,3.15A29.84,29.84,0,0,0,475,27.09Z"/><rect class="cls-3" x="403.96" y="73.95" width="2.28" height="2.35"/><rect class="cls-3" x="409.44" y="82.5" width="4.47" height="4.47"/><rect class="cls-3" x="406.15" y="86.97" width="3.29" height="3.29"/><rect class="cls-3" x="395.87" y="67.01" width="6.04" height="5.5"/><rect class="cls-3" x="391.85" y="78.42" width="2.57" height="2.57"/></g></g></g></svg>