<svg xmlns="http://www.w3.org/2000/svg" xmlns:xlink="http://www.w3.org/1999/xlink" width="500" zoomAndPan="magnify" viewBox="0 0 375 62.249996" height="83" preserveAspectRatio="xMidYMid meet" version="1.2"><defs><clipPath id="d9cc2f50fe"><path d="M 2.652344 9 L 51 9 L 51 55 L 2.652344 55 Z M 2.652344 9 "/></clipPath><clipPath id="3699453027"><path d="M 319 9 L 372.449219 9 L 372.449219 55 L 319 55 Z M 319 9 "/></clipPath><clipPath id="a42e40d3ca"><path d="M 274 59 L 276 59 L 276 61.507812 L 274 61.507812 Z M 274 59 "/></clipPath></defs><g id="8684960af9"><g clip-rule="nonzero" clip-path="url(#d9cc2f50fe)"><path style=" stroke:none;fill-rule:nonzero;fill:#ffffff;fill-opacity:1;" d="M 30.015625 54.027344 L 22.890625 54.027344 L 22.890625 16.367188 L 2.652344 16.367188 L 2.652344 9.28125 L 50.292969 9.28125 L 50.292969 16.367188 L 30.015625 16.367188 Z M 30.015625 54.027344 "/></g><path style=" stroke:none;fill-rule:nonzero;fill:#ffffff;fill-opacity:1;" d="M 110.804688 54.027344 L 103.683594 54.027344 L 103.683594 41.425781 C 103.683594 40.953125 103.589844 40.5 103.410156 40.0625 C 103.230469 39.628906 102.972656 39.242188 102.636719 38.910156 C 102.304688 38.578125 101.917969 38.320312 101.484375 38.140625 C 101.046875 37.960938 100.59375 37.867188 100.121094 37.867188 L 64.589844 37.867188 L 64.589844 54.027344 L 57.46875 54.027344 L 57.46875 9.28125 L 100.121094 9.28125 C 101.539062 9.261719 102.902344 9.523438 104.210938 10.0625 C 105.519531 10.605469 106.667969 11.386719 107.65625 12.402344 C 108.683594 13.382812 109.46875 14.527344 110.015625 15.835938 C 110.5625 17.144531 110.824219 18.507812 110.804688 19.925781 L 110.804688 27.191406 C 110.824219 28.511719 110.597656 29.785156 110.121094 31.015625 C 109.644531 32.242188 108.953125 33.339844 108.050781 34.296875 C 108.949219 35.265625 109.640625 36.363281 110.113281 37.59375 C 110.589844 38.828125 110.820312 40.101562 110.804688 41.425781 Z M 100.121094 30.753906 C 101.105469 30.765625 101.9375 30.417969 102.621094 29.710938 C 103.328125 29.019531 103.675781 28.179688 103.664062 27.191406 L 103.664062 19.925781 C 103.664062 19.453125 103.570312 19 103.390625 18.566406 C 103.207031 18.132812 102.949219 17.746094 102.617188 17.414062 C 102.28125 17.082031 101.898438 16.828125 101.460938 16.644531 C 101.027344 16.464844 100.574219 16.375 100.101562 16.375 L 64.589844 16.375 L 64.589844 30.753906 Z M 100.121094 30.753906 "/><path style=" stroke:none;fill-rule:nonzero;fill:#ffffff;fill-opacity:1;" d="M 150.777344 54.027344 L 143.671875 54.027344 L 143.671875 33.242188 L 116.429688 9.28125 L 127.164062 9.28125 L 147.183594 26.902344 L 167.214844 9.28125 L 178.058594 9.28125 L 150.777344 33.242188 Z M 150.777344 54.027344 "/><path style=" stroke:none;fill-rule:nonzero;fill:#ffffff;fill-opacity:1;" d="M 222.773438 54.027344 C 223.710938 54.027344 224.636719 53.9375 225.550781 53.753906 C 226.46875 53.570312 227.359375 53.300781 228.222656 52.941406 C 229.085938 52.585938 229.90625 52.144531 230.679688 51.625 C 231.457031 51.105469 232.175781 50.515625 232.835938 49.855469 C 233.496094 49.195312 234.085938 48.476562 234.605469 47.699219 C 235.125 46.921875 235.5625 46.101562 235.921875 45.238281 C 236.277344 44.375 236.546875 43.484375 236.730469 42.566406 C 236.910156 41.648438 237.003906 40.722656 237 39.789062 L 237 35.207031 C 237 34.875 236.964844 34.546875 236.898438 34.21875 C 236.832031 33.894531 236.734375 33.574219 236.605469 33.269531 C 236.476562 32.960938 236.320312 32.667969 236.132812 32.390625 C 235.949219 32.117188 235.738281 31.859375 235.503906 31.625 C 235.265625 31.386719 235.011719 31.175781 234.734375 30.992188 C 234.457031 30.804688 234.167969 30.648438 233.859375 30.519531 C 233.550781 30.390625 233.234375 30.292969 232.910156 30.226562 C 232.582031 30.15625 232.253906 30.121094 231.917969 30.121094 L 210.324219 30.121094 L 210.324219 37.226562 L 229.882812 37.226562 L 229.882812 39.789062 C 229.886719 40.734375 229.710938 41.640625 229.347656 42.511719 C 228.984375 43.382812 228.464844 44.148438 227.792969 44.808594 C 227.132812 45.480469 226.367188 46 225.496094 46.367188 C 224.625 46.730469 223.71875 46.914062 222.773438 46.914062 L 197.890625 46.914062 C 197.425781 46.917969 196.960938 46.871094 196.503906 46.78125 C 196.042969 46.691406 195.597656 46.558594 195.164062 46.378906 C 194.734375 46.199219 194.320312 45.980469 193.933594 45.71875 C 193.542969 45.460938 193.183594 45.164062 192.855469 44.832031 C 192.523438 44.503906 192.230469 44.140625 191.96875 43.753906 C 191.710938 43.363281 191.492188 42.953125 191.316406 42.519531 C 191.136719 42.085938 191.003906 41.640625 190.914062 41.179688 C 190.828125 40.722656 190.78125 40.257812 190.785156 39.789062 L 190.785156 23.476562 C 190.785156 23.007812 190.832031 22.546875 190.921875 22.089844 C 191.015625 21.632812 191.148438 21.1875 191.328125 20.757812 C 191.507812 20.324219 191.726562 19.914062 191.984375 19.527344 C 192.246094 19.140625 192.539062 18.78125 192.867188 18.453125 C 193.199219 18.121094 193.558594 17.828125 193.945312 17.566406 C 194.332031 17.308594 194.742188 17.089844 195.171875 16.910156 C 195.605469 16.730469 196.046875 16.597656 196.507812 16.503906 C 196.964844 16.414062 197.425781 16.367188 197.890625 16.367188 L 222.773438 16.367188 C 223.242188 16.371094 223.703125 16.417969 224.160156 16.507812 C 224.617188 16.601562 225.0625 16.738281 225.492188 16.914062 C 225.921875 17.09375 226.332031 17.3125 226.71875 17.574219 C 227.105469 17.832031 227.464844 18.128906 227.792969 18.457031 C 228.121094 18.785156 228.417969 19.144531 228.675781 19.53125 C 228.9375 19.917969 229.15625 20.328125 229.335938 20.757812 C 229.511719 21.1875 229.648438 21.632812 229.742188 22.089844 C 229.832031 22.546875 229.878906 23.007812 229.882812 23.476562 L 237 23.476562 C 237.03125 21.585938 236.679688 19.769531 235.953125 18.027344 C 235.226562 16.28125 234.183594 14.753906 232.824219 13.445312 C 231.507812 12.085938 229.976562 11.046875 228.230469 10.320312 C 226.484375 9.597656 224.664062 9.25 222.773438 9.28125 L 197.890625 9.28125 C 196.003906 9.253906 194.1875 9.605469 192.441406 10.328125 C 190.695312 11.050781 189.167969 12.089844 187.851562 13.445312 C 186.496094 14.757812 185.453125 16.285156 184.730469 18.03125 C 184.007812 19.773438 183.664062 21.585938 183.691406 23.476562 L 183.691406 39.789062 C 183.691406 40.726562 183.78125 41.652344 183.960938 42.566406 C 184.144531 43.484375 184.414062 44.375 184.769531 45.238281 C 185.125 46.101562 185.5625 46.921875 186.082031 47.699219 C 186.601562 48.476562 187.191406 49.195312 187.851562 49.859375 C 188.511719 50.519531 189.230469 51.109375 190.007812 51.628906 C 190.785156 52.148438 191.605469 52.585938 192.46875 52.941406 C 193.332031 53.300781 194.222656 53.570312 195.140625 53.75 C 196.058594 53.933594 196.984375 54.023438 197.917969 54.023438 Z M 222.773438 54.027344 "/><g clip-rule="nonzero" clip-path="url(#3699453027)"><path style=" stroke:none;fill-rule:nonzero;fill:#ffffff;fill-opacity:1;" d="M 372.34375 54.027344 L 367.5 54.027344 L 326.128906 20.289062 L 326.128906 54.027344 L 319 54.027344 L 319 9.28125 L 323.8125 9.28125 L 365.21875 42.996094 L 365.21875 9.28125 L 372.34375 9.28125 Z M 372.34375 54.027344 "/></g><path style=" stroke:none;fill-rule:evenodd;fill:#ffffff;fill-opacity:1;" d="M 284.007812 52.894531 C 283.832031 52.894531 283.851562 52.894531 283.769531 53.023438 C 283.972656 52.984375 283.921875 52.996094 284.007812 52.894531 Z M 284.007812 52.894531 "/><path style=" stroke:none;fill-rule:nonzero;fill:#ffffff;fill-opacity:1;" d="M 263.910156 46.378906 L 269.421875 46.378906 L 269.421875 51.890625 L 263.910156 51.890625 Z M 263.910156 46.378906 "/><path style=" stroke:none;fill-rule:nonzero;fill:#ffffff;fill-opacity:1;" d="M 268.914062 54.867188 L 271.753906 54.867188 L 271.753906 58.167969 L 268.914062 58.167969 Z M 268.914062 54.867188 "/><path style=" stroke:none;fill-rule:evenodd;fill:#ffffff;fill-opacity:1;" d="M 295.1875 37.808594 C 293.4375 36.828125 291.558594 36.292969 289.554688 36.207031 L 289.613281 35.945312 L 288.074219 36.628906 C 286.523438 37.34375 284.871094 37.914062 283.273438 38.46875 C 282.71875 38.667969 282.167969 38.835938 281.589844 39.007812 L 280.730469 39.269531 L 278.136719 39.980469 C 277.550781 40.234375 276.972656 40.214844 276.40625 39.917969 L 275.539062 39.667969 C 273.875 39.15625 272.207031 38.566406 270.59375 37.925781 L 269.832031 37.617188 L 268.28125 36.976562 C 267.285156 36.523438 266.269531 36.078125 265.3125 35.554688 C 264.824219 35.292969 264.363281 35.074219 263.898438 34.804688 C 262.492188 34.03125 261.136719 33.175781 259.835938 32.242188 C 259.617188 32.074219 259.410156 31.945312 259.191406 31.78125 C 258.65625 31.375 257.558594 30.535156 257.078125 30.101562 L 255.136719 28.253906 C 254.773438 27.902344 254.433594 27.53125 254.113281 27.140625 C 252.730469 25.585938 251.574219 23.875 250.644531 22.011719 C 250.316406 21.316406 250.003906 20.609375 249.746094 19.890625 C 248.957031 22.136719 248.4375 24.4375 248.199219 26.804688 C 247.957031 29.171875 247.996094 31.53125 248.316406 33.886719 C 248.640625 36.246094 249.234375 38.53125 250.101562 40.742188 C 250.972656 42.957031 252.085938 45.039062 253.453125 46.988281 L 255.226562 46.988281 L 255.226562 42.101562 L 261.546875 42.101562 L 261.546875 46.71875 L 262.980469 46.71875 L 262.980469 45.4375 L 270.234375 45.4375 L 270.234375 52.710938 L 268.921875 52.710938 L 268.921875 54.253906 L 272.496094 54.253906 L 272.496094 58.777344 L 270.472656 58.777344 C 272.105469 59.191406 273.761719 59.464844 275.445312 59.597656 C 275.507812 59.519531 275.558594 59.457031 275.605469 59.410156 C 276.65625 58.105469 277.792969 56.882812 279.019531 55.738281 L 279.96875 54.914062 C 280.777344 54.210938 281.632812 53.570312 282.53125 52.992188 C 284.191406 51.898438 285.941406 50.972656 287.78125 50.214844 C 288.625 49.871094 289.476562 49.574219 290.3125 49.183594 C 290.742188 48.984375 291.132812 48.824219 291.5625 48.628906 C 293.59375 47.804688 295.253906 46.507812 296.546875 44.738281 C 297.054688 43.992188 297.382812 43.175781 297.539062 42.289062 C 297.890625 40.199219 296.464844 38.625 295.1875 37.808594 Z M 295.1875 37.808594 "/><path style=" stroke:none;fill-rule:nonzero;fill:#ffffff;fill-opacity:1;" d="M 259.085938 48.953125 L 261.539062 48.953125 L 261.539062 51.40625 L 259.085938 51.40625 Z M 259.085938 48.953125 "/><path style=" stroke:none;fill-rule:nonzero;fill:#ffffff;fill-opacity:1;" d="M 255.40625 47.449219 L 258.269531 47.449219 L 258.269531 50.3125 L 255.40625 50.3125 Z M 255.40625 47.449219 "/><path style=" stroke:none;fill-rule:nonzero;fill:#ffffff;fill-opacity:1;" d="M 261 51.890625 L 263.863281 51.890625 L 263.863281 54.753906 L 261 54.753906 Z M 261 51.890625 "/><path style=" stroke:none;fill-rule:nonzero;fill:#ffffff;fill-opacity:1;" d="M 257.320312 54.753906 L 261 54.753906 L 261 58.429688 L 257.320312 58.429688 Z M 257.320312 54.753906 "/><path style=" stroke:none;fill-rule:nonzero;fill:#ffffff;fill-opacity:1;" d="M 266.921875 58.167969 L 268.882812 58.167969 L 268.882812 60.128906 L 266.921875 60.128906 Z M 266.921875 58.167969 "/><path style=" stroke:none;fill-rule:evenodd;fill:#ffffff;fill-opacity:1;" d="M 299.40625 43.128906 C 299.40625 43.316406 299.40625 43.128906 299.441406 43.21875 L 299.441406 43.046875 C 299.40625 43.089844 299.410156 43.03125 299.40625 43.128906 Z M 299.40625 43.128906 "/><path style=" stroke:none;fill-rule:evenodd;fill:#ffffff;fill-opacity:1;" d="M 287.375 37.695312 C 287.375 37.695312 287.382812 37.6875 287.375 37.695312 Z M 287.375 37.695312 "/><path style=" stroke:none;fill-rule:evenodd;fill:#ffffff;fill-opacity:1;" d="M 292.125 45.25 C 292.402344 44.851562 292.316406 43.117188 292.195312 42.609375 C 291.796875 41.148438 290.984375 39.972656 289.761719 39.078125 C 289.167969 38.625 288.527344 38.25 287.839844 37.957031 L 288.761719 38.546875 C 288.925781 38.664062 289.070312 38.75 289.222656 38.867188 L 289.632812 39.1875 C 290.792969 40.246094 291.554688 41.109375 292.007812 42.679688 C 292.375 44 292.125 44.429688 292.125 45.25 Z M 292.125 45.25 "/><path style=" stroke:none;fill-rule:evenodd;fill:#ffffff;fill-opacity:1;" d="M 297.355469 45.792969 C 297.25 45.859375 297.289062 45.792969 297.257812 45.921875 C 297.359375 45.859375 297.320312 45.917969 297.355469 45.792969 Z M 297.355469 45.792969 "/><path style=" stroke:none;fill-rule:evenodd;fill:#ffffff;fill-opacity:1;" d="M 255.929688 20.796875 C 256.5 21.058594 257.089844 21.277344 257.71875 21.507812 C 258.367188 21.726562 259.027344 21.90625 259.699219 22.046875 C 259.9375 22.097656 261.691406 22.335938 261.820312 22.410156 C 261.179688 22.546875 260.539062 22.691406 259.898438 22.816406 C 259.238281 22.886719 258.582031 23 257.9375 23.15625 C 258.917969 23.15625 259.816406 23.082031 260.742188 23.027344 C 261.671875 22.96875 262.46875 22.851562 263.308594 22.726562 C 264.148438 22.597656 265.023438 22.480469 265.832031 22.335938 C 267.40625 22.125 268.933594 21.738281 270.421875 21.179688 C 271.125 20.949219 271.832031 20.71875 272.59375 20.539062 C 274.214844 20.039062 275.875 19.789062 277.574219 19.789062 C 279.273438 19.789062 280.933594 20.039062 282.558594 20.539062 C 284.03125 20.9375 285.34375 21.5 286.753906 22.007812 C 287.472656 22.261719 288.195312 22.511719 288.914062 22.730469 C 290.457031 23.207031 294.253906 24.308594 295.894531 24.308594 L 295.859375 24.308594 L 295.644531 24.25 C 294.207031 23.90625 292.796875 23.480469 291.414062 22.96875 C 291.921875 22.96875 292.257812 23.011719 292.792969 23.011719 C 293.679688 23.007812 294.5625 22.945312 295.445312 22.828125 C 295.824219 22.78125 296.269531 22.699219 296.636719 22.617188 C 297.378906 22.457031 298.109375 22.257812 298.828125 22.011719 C 300.140625 21.535156 301.398438 20.945312 302.609375 20.246094 C 303.632812 19.671875 304.589844 19 305.480469 18.234375 C 304.914062 16.910156 304.257812 15.632812 303.507812 14.402344 C 302.761719 13.175781 301.925781 12.003906 301.007812 10.898438 C 300.089844 9.789062 299.09375 8.753906 298.027344 7.789062 C 296.957031 6.824219 295.824219 5.941406 294.628906 5.140625 C 293.433594 4.339844 292.1875 3.628906 290.886719 3.011719 C 289.589844 2.390625 288.25 1.867188 286.875 1.441406 C 285.5 1.015625 284.101562 0.691406 282.679688 0.464844 C 281.257812 0.242188 279.828125 0.121094 278.390625 0.105469 C 276.949219 0.0859375 275.519531 0.175781 274.089844 0.363281 C 272.664062 0.554688 271.257812 0.847656 269.875 1.242188 C 268.488281 1.636719 267.140625 2.128906 265.828125 2.714844 C 264.515625 3.304688 263.25 3.988281 262.035156 4.757812 C 260.820312 5.53125 259.667969 6.386719 258.578125 7.324219 C 257.488281 8.265625 256.46875 9.277344 255.523438 10.363281 C 254.582031 11.449219 253.71875 12.597656 252.941406 13.808594 C 252.164062 15.019531 251.476562 16.28125 250.882812 17.59375 C 251.042969 17.734375 251.203125 17.875 251.375 18.003906 C 252.789062 19.101562 254.308594 20.035156 255.929688 20.796875 Z M 255.929688 20.796875 "/><path style=" stroke:none;fill-rule:evenodd;fill:#ffffff;fill-opacity:1;" d="M 284.152344 52.894531 C 283.980469 52.894531 284 52.894531 283.917969 53.023438 C 284.089844 52.984375 284.0625 52.996094 284.152344 52.894531 Z M 284.152344 52.894531 "/><path style=" stroke:none;fill-rule:evenodd;fill:#ffffff;fill-opacity:1;" d="M 285.023438 52.472656 C 285.183594 52.386719 285.300781 52.351562 285.460938 52.261719 L 286.78125 51.621094 L 287.222656 51.414062 C 287.382812 51.34375 287.492188 51.320312 287.652344 51.242188 C 289.332031 50.472656 290.765625 50.082031 292.292969 49.480469 C 293.164062 49.144531 293.988281 48.714844 294.765625 48.199219 C 295.265625 47.867188 295.738281 47.496094 296.179688 47.09375 C 296.628906 46.703125 297.019531 46.261719 297.359375 45.773438 C 297.21875 45.859375 297.160156 45.972656 297.039062 46.089844 C 296.320312 46.867188 295.507812 47.535156 294.605469 48.089844 C 294.074219 48.425781 293.519531 48.722656 292.945312 48.972656 C 292.347656 49.25 291.734375 49.492188 291.105469 49.691406 C 289.703125 50.195312 288.875 50.5 287.464844 51.144531 C 286.316406 51.652344 285.207031 52.234375 284.140625 52.894531 C 284.445312 52.773438 284.738281 52.632812 285.023438 52.472656 Z M 285.023438 52.472656 "/><path style=" stroke:none;fill-rule:evenodd;fill:#ffffff;fill-opacity:1;" d="M 306.214844 20.21875 C 306.113281 20.480469 306.011719 20.746094 305.894531 21 C 305.179688 22.730469 304.25 24.335938 303.101562 25.8125 L 300.386719 28.894531 L 299.390625 29.8125 C 299.296875 29.894531 299.226562 29.972656 299.128906 30.050781 C 298.6875 30.410156 298.257812 30.800781 297.789062 31.132812 L 295.226562 32.941406 C 294.71875 33.214844 294.238281 33.527344 293.785156 33.882812 C 294.265625 34.019531 294.730469 34.207031 295.167969 34.445312 C 295.566406 34.664062 296.007812 34.863281 296.378906 35.085938 C 296.589844 35.226562 296.757812 35.328125 296.957031 35.476562 L 297.238281 35.695312 C 298.417969 36.597656 299.316406 37.722656 299.925781 39.078125 C 301.027344 41.640625 300.167969 44.539062 298.285156 46.589844 C 296.832031 48.109375 295.125 49.234375 293.15625 49.964844 C 292.6875 50.152344 292.234375 50.324219 291.734375 50.5 C 287.433594 51.964844 284.992188 52.484375 281.097656 55.175781 C 280.710938 55.445312 280.371094 55.683594 280 55.957031 L 276.285156 59.277344 C 276.199219 59.359375 276.128906 59.410156 276.046875 59.496094 C 276.003906 59.535156 275.964844 59.578125 275.929688 59.625 C 276.617188 59.667969 277.308594 59.695312 278 59.695312 C 278.589844 59.695312 279.179688 59.675781 279.769531 59.640625 C 280.359375 59.605469 280.949219 59.550781 281.535156 59.480469 C 282.121094 59.410156 282.703125 59.320312 283.285156 59.21875 C 283.863281 59.113281 284.441406 58.988281 285.015625 58.851562 C 285.589844 58.710938 286.15625 58.554688 286.722656 58.382812 C 287.285156 58.207031 287.84375 58.019531 288.398438 57.8125 C 288.949219 57.605469 289.496094 57.382812 290.035156 57.144531 C 290.578125 56.90625 291.109375 56.652344 291.632812 56.378906 C 292.15625 56.109375 292.675781 55.824219 293.183594 55.523438 C 293.691406 55.222656 294.1875 54.90625 294.675781 54.574219 C 295.167969 54.246094 295.644531 53.902344 296.113281 53.542969 C 296.582031 53.183594 297.039062 52.808594 297.484375 52.425781 C 297.933594 52.039062 298.367188 51.640625 298.789062 51.226562 C 299.210938 50.816406 299.621094 50.390625 300.019531 49.953125 C 300.417969 49.519531 300.800781 49.070312 301.171875 48.609375 C 301.542969 48.152344 301.898438 47.683594 302.242188 47.203125 C 302.585938 46.722656 302.914062 46.230469 303.230469 45.730469 C 303.542969 45.230469 303.839844 44.722656 304.125 44.207031 C 304.410156 43.6875 304.675781 43.164062 304.929688 42.628906 C 305.183594 42.097656 305.417969 41.554688 305.640625 41.007812 C 305.859375 40.460938 306.0625 39.90625 306.253906 39.347656 C 306.441406 38.789062 306.609375 38.222656 306.765625 37.652344 C 306.917969 37.082031 307.054688 36.511719 307.175781 35.933594 C 307.296875 35.355469 307.398438 34.773438 307.484375 34.1875 C 307.570312 33.605469 307.636719 33.019531 307.6875 32.429688 C 307.738281 31.84375 307.773438 31.253906 307.789062 30.664062 C 307.804688 30.074219 307.804688 29.484375 307.785156 28.894531 C 307.765625 28.304688 307.726562 27.714844 307.675781 27.128906 C 307.621094 26.539062 307.546875 25.953125 307.460938 25.371094 C 307.371094 24.789062 307.265625 24.207031 307.140625 23.628906 C 307.019531 23.050781 306.878906 22.480469 306.71875 21.910156 C 306.5625 21.339844 306.386719 20.777344 306.199219 20.21875 Z M 306.214844 20.21875 "/><g clip-rule="nonzero" clip-path="url(#a42e40d3ca)"><path style=" stroke:none;fill-rule:evenodd;fill:#ffffff;fill-opacity:1;" d="M 274.265625 61.449219 C 274.523438 61.289062 275.273438 60.304688 275.578125 60 C 275.699219 59.878906 275.808594 59.75 275.917969 59.625 L 275.59375 59.625 C 275.089844 60.1875 274.644531 60.796875 274.265625 61.449219 Z M 274.265625 61.449219 "/></g><path style=" stroke:none;fill-rule:evenodd;fill:#ffffff;fill-opacity:1;" d="M 250.011719 16.789062 L 249.105469 15.875 C 249.015625 15.75 248.910156 15.644531 248.785156 15.554688 C 248.808594 15.851562 248.855469 16.144531 248.925781 16.433594 C 248.984375 16.753906 249.035156 17.003906 249.101562 17.324219 C 249.300781 18.195312 249.558594 19.050781 249.875 19.886719 C 250.164062 19.078125 250.476562 18.285156 250.832031 17.507812 Z M 250.011719 16.789062 "/><path style=" stroke:none;fill-rule:evenodd;fill:#ffffff;fill-opacity:1;" d="M 307.042969 17.417969 C 307.121094 17.152344 307.171875 16.882812 307.195312 16.605469 C 306.953125 16.804688 306.71875 17.019531 306.5 17.246094 C 306.160156 17.558594 305.808594 17.886719 305.449219 18.175781 C 305.730469 18.816406 305.984375 19.507812 306.222656 20.195312 C 306.566406 19.289062 306.839844 18.363281 307.042969 17.417969 Z M 307.042969 17.417969 "/><path style=" stroke:none;fill-rule:nonzero;fill:#ffffff;fill-opacity:1;" d="M 261.519531 47.449219 L 262.980469 47.449219 L 262.980469 48.953125 L 261.519531 48.953125 Z M 261.519531 47.449219 "/><path style=" stroke:none;fill-rule:nonzero;fill:#ffffff;fill-opacity:1;" d="M 265.03125 52.925781 L 267.894531 52.925781 L 267.894531 55.792969 L 265.03125 55.792969 Z M 265.03125 52.925781 "/><path style=" stroke:none;fill-rule:nonzero;fill:#ffffff;fill-opacity:1;" d="M 262.921875 55.792969 L 265.03125 55.792969 L 265.03125 57.898438 L 262.921875 57.898438 Z M 262.921875 55.792969 "/><path style=" stroke:none;fill-rule:nonzero;fill:#ffffff;fill-opacity:1;" d="M 256.335938 43 L 260.207031 43 L 260.207031 46.523438 L 256.335938 46.523438 Z M 256.335938 43 "/><path style=" stroke:none;fill-rule:nonzero;fill:#ffffff;fill-opacity:1;" d="M 253.757812 50.3125 L 255.40625 50.3125 L 255.40625 51.960938 L 253.757812 51.960938 Z M 253.757812 50.3125 "/></g></svg>