<svg xmlns="http://www.w3.org/2000/svg" xmlns:xlink="http://www.w3.org/1999/xlink" width="500" zoomAndPan="magnify" viewBox="0 0 375 62.249996" height="83" preserveAspectRatio="xMidYMid meet" version="1.2"><defs><clipPath id="5f40a8bfff"><path d="M 2.230469 9 L 50 9 L 50 55 L 2.230469 55 Z M 2.230469 9 "/></clipPath><clipPath id="eaf13a3793"><path d="M 273 59 L 276 59 L 276 61.507812 L 273 61.507812 Z M 273 59 "/></clipPath></defs><g id="ca433c690d"><g clip-rule="nonzero" clip-path="url(#5f40a8bfff)"><path style=" stroke:none;fill-rule:nonzero;fill:#ffffff;fill-opacity:1;" d="M 29.59375 54.027344 L 22.46875 54.027344 L 22.46875 16.367188 L 2.230469 16.367188 L 2.230469 9.28125 L 49.871094 9.28125 L 49.871094 16.367188 L 29.59375 16.367188 Z M 29.59375 54.027344 "/></g><path style=" stroke:none;fill-rule:nonzero;fill:#ffffff;fill-opacity:1;" d="M 110.382812 54.027344 L 103.265625 54.027344 L 103.265625 41.425781 C 103.261719 40.953125 103.171875 40.5 102.988281 40.0625 C 102.808594 39.628906 102.550781 39.242188 102.214844 38.910156 C 101.882812 38.578125 101.496094 38.320312 101.0625 38.140625 C 100.625 37.960938 100.171875 37.867188 99.703125 37.867188 L 64.167969 37.867188 L 64.167969 54.027344 L 57.046875 54.027344 L 57.046875 9.28125 L 99.703125 9.28125 C 101.117188 9.261719 102.480469 9.523438 103.789062 10.0625 C 105.101562 10.605469 106.25 11.386719 107.238281 12.402344 C 108.261719 13.382812 109.046875 14.527344 109.59375 15.835938 C 110.140625 17.144531 110.40625 18.507812 110.382812 19.925781 L 110.382812 27.191406 C 110.40625 28.511719 110.175781 29.785156 109.699219 31.015625 C 109.222656 32.242188 108.53125 33.339844 107.628906 34.296875 C 108.53125 35.265625 109.21875 36.363281 109.695312 37.59375 C 110.171875 38.828125 110.402344 40.101562 110.382812 41.425781 Z M 99.703125 30.753906 C 100.683594 30.765625 101.515625 30.417969 102.199219 29.710938 C 102.90625 29.019531 103.253906 28.179688 103.246094 27.191406 L 103.246094 19.925781 C 103.242188 19.453125 103.148438 19 102.96875 18.566406 C 102.785156 18.132812 102.527344 17.746094 102.195312 17.414062 C 101.859375 17.082031 101.476562 16.828125 101.042969 16.644531 C 100.605469 16.464844 100.152344 16.375 99.683594 16.375 L 64.167969 16.375 L 64.167969 30.753906 Z M 99.703125 30.753906 "/><path style=" stroke:none;fill-rule:nonzero;fill:#ffffff;fill-opacity:1;" d="M 150.359375 54.027344 L 143.25 54.027344 L 143.25 33.242188 L 116.011719 9.28125 L 126.742188 9.28125 L 146.761719 26.902344 L 166.796875 9.28125 L 177.636719 9.28125 L 150.359375 33.242188 Z M 150.359375 54.027344 "/><path style=" stroke:none;fill-rule:nonzero;fill:#ffffff;fill-opacity:1;" d="M 222.355469 54.027344 C 223.289062 54.027344 224.214844 53.9375 225.132812 53.753906 C 226.046875 53.570312 226.9375 53.300781 227.800781 52.941406 C 228.664062 52.585938 229.484375 52.144531 230.261719 51.625 C 231.039062 51.105469 231.757812 50.515625 232.417969 49.855469 C 233.078125 49.195312 233.667969 48.476562 234.1875 47.699219 C 234.703125 46.921875 235.144531 46.101562 235.5 45.238281 C 235.855469 44.375 236.125 43.484375 236.308594 42.566406 C 236.492188 41.648438 236.582031 40.722656 236.582031 39.789062 L 236.582031 35.207031 C 236.578125 34.875 236.542969 34.546875 236.476562 34.21875 C 236.410156 33.894531 236.3125 33.574219 236.183594 33.269531 C 236.054688 32.960938 235.898438 32.667969 235.714844 32.390625 C 235.527344 32.117188 235.316406 31.859375 235.082031 31.625 C 234.847656 31.386719 234.589844 31.175781 234.3125 30.992188 C 234.039062 30.804688 233.746094 30.648438 233.4375 30.519531 C 233.132812 30.390625 232.816406 30.292969 232.488281 30.226562 C 232.160156 30.15625 231.832031 30.121094 231.5 30.121094 L 209.902344 30.121094 L 209.902344 37.226562 L 229.460938 37.226562 L 229.460938 39.789062 C 229.46875 40.734375 229.289062 41.640625 228.925781 42.511719 C 228.5625 43.382812 228.046875 44.148438 227.371094 44.808594 C 226.710938 45.480469 225.945312 46 225.074219 46.367188 C 224.207031 46.730469 223.296875 46.914062 222.355469 46.914062 L 197.472656 46.914062 C 197.003906 46.917969 196.539062 46.871094 196.082031 46.78125 C 195.621094 46.691406 195.175781 46.558594 194.746094 46.378906 C 194.3125 46.199219 193.902344 45.980469 193.511719 45.71875 C 193.125 45.460938 192.765625 45.164062 192.433594 44.832031 C 192.101562 44.503906 191.808594 44.140625 191.550781 43.753906 C 191.289062 43.363281 191.074219 42.953125 190.894531 42.519531 C 190.71875 42.085938 190.585938 41.640625 190.496094 41.179688 C 190.40625 40.722656 190.363281 40.257812 190.363281 39.789062 L 190.363281 23.476562 C 190.363281 23.007812 190.410156 22.546875 190.503906 22.089844 C 190.59375 21.632812 190.730469 21.1875 190.90625 20.757812 C 191.085938 20.324219 191.304688 19.914062 191.5625 19.527344 C 191.824219 19.140625 192.117188 18.78125 192.449219 18.453125 C 192.777344 18.121094 193.136719 17.828125 193.523438 17.566406 C 193.914062 17.308594 194.320312 17.089844 194.753906 16.910156 C 195.183594 16.730469 195.628906 16.597656 196.085938 16.503906 C 196.542969 16.414062 197.003906 16.367188 197.472656 16.367188 L 222.355469 16.367188 C 222.820312 16.371094 223.28125 16.417969 223.738281 16.507812 C 224.195312 16.601562 224.640625 16.738281 225.070312 16.914062 C 225.5 17.09375 225.910156 17.3125 226.296875 17.574219 C 226.683594 17.832031 227.042969 18.128906 227.371094 18.457031 C 227.703125 18.785156 227.996094 19.144531 228.253906 19.53125 C 228.515625 19.917969 228.734375 20.328125 228.914062 20.757812 C 229.09375 21.1875 229.226562 21.632812 229.320312 22.089844 C 229.414062 22.546875 229.460938 23.007812 229.460938 23.476562 L 236.582031 23.476562 C 236.609375 21.585938 236.261719 19.769531 235.535156 18.027344 C 234.808594 16.28125 233.765625 14.753906 232.402344 13.445312 C 231.085938 12.085938 229.558594 11.046875 227.808594 10.320312 C 226.0625 9.597656 224.246094 9.25 222.355469 9.28125 L 197.472656 9.28125 C 195.582031 9.253906 193.765625 9.605469 192.019531 10.328125 C 190.277344 11.050781 188.746094 12.089844 187.429688 13.445312 C 186.074219 14.757812 185.035156 16.285156 184.3125 18.03125 C 183.589844 19.773438 183.242188 21.585938 183.269531 23.476562 L 183.269531 39.789062 C 183.269531 40.726562 183.359375 41.652344 183.539062 42.566406 C 183.722656 43.484375 183.992188 44.375 184.347656 45.238281 C 184.707031 46.101562 185.144531 46.921875 185.664062 47.699219 C 186.179688 48.476562 186.769531 49.195312 187.429688 49.859375 C 188.09375 50.519531 188.8125 51.109375 189.589844 51.628906 C 190.367188 52.148438 191.1875 52.585938 192.050781 52.941406 C 192.914062 53.300781 193.804688 53.570312 194.71875 53.75 C 195.636719 53.933594 196.5625 54.023438 197.496094 54.023438 Z M 222.355469 54.027344 "/><path style=" stroke:none;fill-rule:nonzero;fill:#ffffff;fill-opacity:1;" d="M 371.921875 54.027344 L 367.078125 54.027344 L 325.707031 20.289062 L 325.707031 54.027344 L 318.582031 54.027344 L 318.582031 9.28125 L 323.394531 9.28125 L 364.796875 42.996094 L 364.796875 9.28125 L 371.921875 9.28125 Z M 371.921875 54.027344 "/><path style=" stroke:none;fill-rule:evenodd;fill:#ffffff;fill-opacity:1;" d="M 283.585938 52.894531 C 283.414062 52.894531 283.429688 52.894531 283.347656 53.023438 C 283.554688 52.984375 283.5 52.996094 283.585938 52.894531 Z M 283.585938 52.894531 "/><path style=" stroke:none;fill-rule:nonzero;fill:#ffffff;fill-opacity:1;" d="M 263.488281 46.378906 L 269 46.378906 L 269 51.890625 L 263.488281 51.890625 Z M 263.488281 46.378906 "/><path style=" stroke:none;fill-rule:nonzero;fill:#ffffff;fill-opacity:1;" d="M 268.492188 54.867188 L 271.332031 54.867188 L 271.332031 58.167969 L 268.492188 58.167969 Z M 268.492188 54.867188 "/><path style=" stroke:none;fill-rule:evenodd;fill:#ffffff;fill-opacity:1;" d="M 294.765625 37.808594 C 293.015625 36.828125 291.140625 36.292969 289.132812 36.207031 L 289.191406 35.945312 L 287.65625 36.628906 C 286.105469 37.34375 284.449219 37.914062 282.855469 38.46875 C 282.296875 38.667969 281.746094 38.835938 281.167969 39.007812 L 280.3125 39.269531 L 277.714844 39.980469 C 277.128906 40.234375 276.550781 40.214844 275.984375 39.917969 L 275.121094 39.667969 C 273.453125 39.15625 271.789062 38.566406 270.171875 37.925781 L 269.410156 37.617188 L 267.859375 36.976562 C 266.867188 36.523438 265.847656 36.078125 264.890625 35.554688 C 264.40625 35.292969 263.945312 35.074219 263.476562 34.804688 C 262.070312 34.03125 260.714844 33.175781 259.414062 32.242188 C 259.195312 32.074219 258.992188 31.945312 258.773438 31.78125 C 258.234375 31.375 257.136719 30.535156 256.65625 30.101562 L 254.714844 28.253906 C 254.355469 27.902344 254.011719 27.53125 253.691406 27.140625 C 252.308594 25.585938 251.152344 23.875 250.222656 22.011719 C 249.898438 21.316406 249.582031 20.609375 249.328125 19.890625 C 248.535156 22.136719 248.019531 24.4375 247.777344 26.804688 C 247.535156 29.171875 247.574219 31.53125 247.898438 33.886719 C 248.21875 36.246094 248.816406 38.53125 249.683594 40.742188 C 250.550781 42.957031 251.667969 45.039062 253.03125 46.988281 L 254.804688 46.988281 L 254.804688 42.101562 L 261.125 42.101562 L 261.125 46.71875 L 262.558594 46.71875 L 262.558594 45.4375 L 269.8125 45.4375 L 269.8125 52.710938 L 268.5 52.710938 L 268.5 54.253906 L 272.074219 54.253906 L 272.074219 58.777344 L 270.050781 58.777344 C 271.683594 59.191406 273.34375 59.464844 275.023438 59.597656 C 275.085938 59.519531 275.140625 59.457031 275.183594 59.410156 C 276.234375 58.105469 277.371094 56.882812 278.597656 55.738281 L 279.546875 54.914062 C 280.355469 54.210938 281.210938 53.570312 282.109375 52.992188 C 283.773438 51.898438 285.523438 50.972656 287.359375 50.214844 C 288.207031 49.871094 289.058594 49.574219 289.890625 49.183594 C 290.320312 48.984375 290.710938 48.824219 291.140625 48.628906 C 293.171875 47.804688 294.832031 46.507812 296.125 44.738281 C 296.632812 43.992188 296.964844 43.175781 297.121094 42.289062 C 297.472656 40.199219 296.042969 38.625 294.765625 37.808594 Z M 294.765625 37.808594 "/><path style=" stroke:none;fill-rule:nonzero;fill:#ffffff;fill-opacity:1;" d="M 258.664062 48.953125 L 261.117188 48.953125 L 261.117188 51.40625 L 258.664062 51.40625 Z M 258.664062 48.953125 "/><path style=" stroke:none;fill-rule:nonzero;fill:#ffffff;fill-opacity:1;" d="M 254.984375 47.449219 L 257.851562 47.449219 L 257.851562 50.3125 L 254.984375 50.3125 Z M 254.984375 47.449219 "/><path style=" stroke:none;fill-rule:nonzero;fill:#ffffff;fill-opacity:1;" d="M 260.578125 51.890625 L 263.445312 51.890625 L 263.445312 54.753906 L 260.578125 54.753906 Z M 260.578125 51.890625 "/><path style=" stroke:none;fill-rule:nonzero;fill:#ffffff;fill-opacity:1;" d="M 256.902344 54.753906 L 260.578125 54.753906 L 260.578125 58.429688 L 256.902344 58.429688 Z M 256.902344 54.753906 "/><path style=" stroke:none;fill-rule:nonzero;fill:#ffffff;fill-opacity:1;" d="M 266.5 58.167969 L 268.460938 58.167969 L 268.460938 60.128906 L 266.5 60.128906 Z M 266.5 58.167969 "/><path style=" stroke:none;fill-rule:evenodd;fill:#ffffff;fill-opacity:1;" d="M 298.984375 43.128906 C 298.984375 43.316406 298.984375 43.128906 299.023438 43.21875 L 299.023438 43.046875 C 298.984375 43.089844 298.992188 43.03125 298.984375 43.128906 Z M 298.984375 43.128906 "/><path style=" stroke:none;fill-rule:evenodd;fill:#ffffff;fill-opacity:1;" d="M 291.703125 45.25 C 291.980469 44.851562 291.898438 43.117188 291.773438 42.609375 C 291.375 41.148438 290.5625 39.972656 289.339844 39.078125 C 288.746094 38.625 288.105469 38.25 287.417969 37.957031 L 288.339844 38.546875 C 288.507812 38.664062 288.648438 38.75 288.800781 38.867188 L 289.210938 39.1875 C 290.371094 40.246094 291.132812 41.109375 291.589844 42.679688 C 291.953125 44 291.703125 44.429688 291.703125 45.25 Z M 291.703125 45.25 "/><path style=" stroke:none;fill-rule:evenodd;fill:#ffffff;fill-opacity:1;" d="M 296.933594 45.792969 C 296.832031 45.859375 296.871094 45.792969 296.835938 45.921875 C 296.941406 45.859375 296.902344 45.917969 296.933594 45.792969 Z M 296.933594 45.792969 "/><path style=" stroke:none;fill-rule:evenodd;fill:#51ade5;fill-opacity:1;" d="M 255.511719 20.796875 C 256.082031 21.058594 256.671875 21.277344 257.296875 21.507812 C 257.949219 21.726562 258.609375 21.90625 259.277344 22.046875 C 259.515625 22.097656 261.273438 22.335938 261.398438 22.410156 C 260.757812 22.546875 260.117188 22.691406 259.476562 22.816406 C 258.816406 22.886719 258.164062 23 257.515625 23.15625 C 258.496094 23.15625 259.394531 23.082031 260.324219 23.027344 C 261.253906 22.96875 262.046875 22.851562 262.886719 22.726562 C 263.726562 22.597656 264.605469 22.480469 265.410156 22.335938 C 266.984375 22.125 268.515625 21.738281 270 21.179688 C 270.703125 20.949219 271.410156 20.71875 272.171875 20.539062 C 273.796875 20.039062 275.457031 19.789062 277.15625 19.789062 C 278.851562 19.789062 280.515625 20.039062 282.136719 20.539062 C 283.609375 20.9375 284.925781 21.5 286.335938 22.007812 C 287.050781 22.261719 287.777344 22.511719 288.492188 22.730469 C 290.039062 23.207031 293.832031 24.308594 295.472656 24.308594 L 295.441406 24.308594 L 295.222656 24.25 C 293.789062 23.90625 292.378906 23.480469 290.992188 22.96875 C 291.5 22.96875 291.839844 23.011719 292.371094 23.011719 C 293.257812 23.007812 294.144531 22.945312 295.023438 22.828125 C 295.402344 22.78125 295.851562 22.699219 296.214844 22.617188 C 296.957031 22.457031 297.6875 22.257812 298.40625 22.011719 C 299.71875 21.535156 300.980469 20.945312 302.1875 20.246094 C 303.214844 19.671875 304.171875 19 305.058594 18.234375 C 304.496094 16.910156 303.835938 15.632812 303.089844 14.402344 C 302.339844 13.175781 301.503906 12.003906 300.585938 10.898438 C 299.667969 9.789062 298.675781 8.753906 297.605469 7.789062 C 296.539062 6.824219 295.40625 5.941406 294.210938 5.140625 C 293.011719 4.339844 291.765625 3.628906 290.464844 3.011719 C 289.167969 2.390625 287.832031 1.867188 286.457031 1.441406 C 285.082031 1.015625 283.683594 0.691406 282.261719 0.464844 C 280.839844 0.242188 279.410156 0.121094 277.96875 0.105469 C 276.53125 0.0859375 275.097656 0.175781 273.671875 0.363281 C 272.242188 0.554688 270.839844 0.847656 269.453125 1.242188 C 268.070312 1.636719 266.71875 2.128906 265.40625 2.714844 C 264.09375 3.304688 262.828125 3.988281 261.617188 4.757812 C 260.402344 5.53125 259.246094 6.386719 258.15625 7.324219 C 257.066406 8.265625 256.046875 9.277344 255.105469 10.363281 C 254.160156 11.449219 253.300781 12.597656 252.519531 13.808594 C 251.742188 15.019531 251.054688 16.28125 250.460938 17.59375 C 250.621094 17.734375 250.78125 17.875 250.953125 18.003906 C 252.371094 19.101562 253.886719 20.035156 255.511719 20.796875 Z M 255.511719 20.796875 "/><path style=" stroke:none;fill-rule:evenodd;fill:#ffffff;fill-opacity:1;" d="M 283.734375 52.894531 C 283.558594 52.894531 283.578125 52.894531 283.496094 53.023438 C 283.667969 52.984375 283.644531 52.996094 283.734375 52.894531 Z M 283.734375 52.894531 "/><path style=" stroke:none;fill-rule:evenodd;fill:#ffffff;fill-opacity:1;" d="M 284.605469 52.472656 C 284.765625 52.386719 284.878906 52.351562 285.039062 52.261719 L 286.359375 51.621094 L 286.800781 51.414062 C 286.960938 51.34375 287.070312 51.320312 287.230469 51.242188 C 288.910156 50.472656 290.347656 50.082031 291.871094 49.480469 C 292.742188 49.144531 293.566406 48.714844 294.34375 48.199219 C 294.84375 47.867188 295.316406 47.496094 295.761719 47.09375 C 296.207031 46.703125 296.601562 46.261719 296.941406 45.773438 C 296.800781 45.859375 296.742188 45.972656 296.621094 46.089844 C 295.898438 46.867188 295.089844 47.535156 294.183594 48.089844 C 293.652344 48.425781 293.101562 48.722656 292.523438 48.972656 C 291.925781 49.25 291.3125 49.492188 290.683594 49.691406 C 289.28125 50.195312 288.457031 50.5 287.046875 51.144531 C 285.898438 51.652344 284.789062 52.234375 283.71875 52.894531 C 284.023438 52.773438 284.316406 52.632812 284.605469 52.472656 Z M 284.605469 52.472656 "/><path style=" stroke:none;fill-rule:evenodd;fill:#ffffff;fill-opacity:1;" d="M 305.796875 20.21875 C 305.695312 20.480469 305.589844 20.746094 305.476562 21 C 304.757812 22.730469 303.828125 24.335938 302.683594 25.8125 L 299.964844 28.894531 L 298.972656 29.8125 C 298.875 29.894531 298.804688 29.972656 298.707031 30.050781 C 298.265625 30.410156 297.835938 30.800781 297.371094 31.132812 L 294.804688 32.941406 C 294.300781 33.214844 293.816406 33.527344 293.363281 33.882812 C 293.847656 34.019531 294.308594 34.207031 294.75 34.445312 C 295.144531 34.664062 295.585938 34.863281 295.960938 35.085938 C 296.171875 35.226562 296.335938 35.328125 296.535156 35.476562 L 296.816406 35.695312 C 298 36.597656 298.894531 37.722656 299.503906 39.078125 C 300.605469 41.640625 299.746094 44.539062 297.863281 46.589844 C 296.414062 48.109375 294.703125 49.234375 292.734375 49.964844 C 292.269531 50.152344 291.8125 50.324219 291.3125 50.5 C 287.011719 51.964844 284.570312 52.484375 280.675781 55.175781 C 280.292969 55.445312 279.953125 55.683594 279.578125 55.957031 L 275.863281 59.277344 C 275.78125 59.359375 275.710938 59.410156 275.625 59.496094 C 275.585938 59.535156 275.546875 59.578125 275.511719 59.625 C 276.195312 59.667969 276.886719 59.695312 277.582031 59.695312 C 278.171875 59.695312 278.761719 59.675781 279.351562 59.640625 C 279.9375 59.605469 280.527344 59.550781 281.113281 59.480469 C 281.699219 59.410156 282.28125 59.320312 282.863281 59.21875 C 283.445312 59.113281 284.019531 58.988281 284.59375 58.851562 C 285.167969 58.710938 285.738281 58.554688 286.300781 58.382812 C 286.867188 58.207031 287.425781 58.019531 287.976562 57.8125 C 288.53125 57.605469 289.078125 57.382812 289.617188 57.144531 C 290.15625 56.90625 290.6875 56.652344 291.210938 56.378906 C 291.738281 56.109375 292.253906 55.824219 292.761719 55.523438 C 293.269531 55.222656 293.765625 54.90625 294.257812 54.574219 C 294.746094 54.246094 295.222656 53.902344 295.691406 53.542969 C 296.160156 53.183594 296.617188 52.808594 297.066406 52.425781 C 297.511719 52.039062 297.945312 51.640625 298.367188 51.226562 C 298.792969 50.816406 299.203125 50.390625 299.597656 49.953125 C 299.996094 49.519531 300.378906 49.070312 300.75 48.609375 C 301.121094 48.152344 301.480469 47.683594 301.824219 47.203125 C 302.164062 46.722656 302.496094 46.230469 302.808594 45.730469 C 303.121094 45.230469 303.421875 44.722656 303.703125 44.207031 C 303.988281 43.6875 304.257812 43.164062 304.507812 42.628906 C 304.761719 42.097656 305 41.554688 305.21875 41.007812 C 305.441406 40.460938 305.644531 39.90625 305.832031 39.347656 C 306.019531 38.789062 306.191406 38.222656 306.34375 37.652344 C 306.5 37.082031 306.636719 36.511719 306.753906 35.933594 C 306.875 35.355469 306.976562 34.773438 307.0625 34.1875 C 307.148438 33.605469 307.21875 33.019531 307.269531 32.429688 C 307.320312 31.84375 307.351562 31.253906 307.367188 30.664062 C 307.382812 30.074219 307.382812 29.484375 307.363281 28.894531 C 307.34375 28.304688 307.308594 27.714844 307.253906 27.128906 C 307.199219 26.539062 307.128906 25.953125 307.039062 25.371094 C 306.949219 24.789062 306.84375 24.207031 306.71875 23.628906 C 306.597656 23.050781 306.457031 22.480469 306.300781 21.910156 C 306.140625 21.339844 305.96875 20.777344 305.777344 20.21875 Z M 305.796875 20.21875 "/><g clip-rule="nonzero" clip-path="url(#eaf13a3793)"><path style=" stroke:none;fill-rule:evenodd;fill:#ffffff;fill-opacity:1;" d="M 273.84375 61.449219 C 274.101562 61.289062 274.851562 60.304688 275.160156 60 C 275.28125 59.878906 275.390625 59.75 275.496094 59.625 L 275.171875 59.625 C 274.667969 60.1875 274.226562 60.796875 273.84375 61.449219 Z M 273.84375 61.449219 "/></g><path style=" stroke:none;fill-rule:evenodd;fill:#ffffff;fill-opacity:1;" d="M 249.589844 16.789062 L 248.6875 15.875 C 248.59375 15.75 248.488281 15.644531 248.367188 15.554688 C 248.390625 15.851562 248.4375 16.144531 248.507812 16.433594 C 248.5625 16.753906 248.617188 17.003906 248.679688 17.324219 C 248.878906 18.195312 249.136719 19.050781 249.453125 19.886719 C 249.742188 19.078125 250.058594 18.285156 250.410156 17.507812 Z M 249.589844 16.789062 "/><path style=" stroke:none;fill-rule:evenodd;fill:#ffffff;fill-opacity:1;" d="M 306.621094 17.417969 C 306.699219 17.152344 306.75 16.882812 306.777344 16.605469 C 306.53125 16.804688 306.296875 17.019531 306.078125 17.246094 C 305.738281 17.558594 305.386719 17.886719 305.027344 18.175781 C 305.308594 18.816406 305.566406 19.507812 305.800781 20.195312 C 306.144531 19.289062 306.417969 18.363281 306.621094 17.417969 Z M 306.621094 17.417969 "/><path style=" stroke:none;fill-rule:nonzero;fill:#ffffff;fill-opacity:1;" d="M 261.097656 47.449219 L 262.558594 47.449219 L 262.558594 48.953125 L 261.097656 48.953125 Z M 261.097656 47.449219 "/><path style=" stroke:none;fill-rule:nonzero;fill:#ffffff;fill-opacity:1;" d="M 264.609375 52.925781 L 267.476562 52.925781 L 267.476562 55.792969 L 264.609375 55.792969 Z M 264.609375 52.925781 "/><path style=" stroke:none;fill-rule:nonzero;fill:#ffffff;fill-opacity:1;" d="M 262.503906 55.792969 L 264.609375 55.792969 L 264.609375 57.898438 L 262.503906 57.898438 Z M 262.503906 55.792969 "/><path style=" stroke:none;fill-rule:nonzero;fill:#ffffff;fill-opacity:1;" d="M 255.914062 43 L 259.785156 43 L 259.785156 46.523438 L 255.914062 46.523438 Z M 255.914062 43 "/><path style=" stroke:none;fill-rule:nonzero;fill:#ffffff;fill-opacity:1;" d="M 253.339844 50.3125 L 254.984375 50.3125 L 254.984375 51.960938 L 253.339844 51.960938 Z M 253.339844 50.3125 "/></g></svg>